<?xml version="1.0" encoding="utf-8"?>
<!-- Generator: Adobe Illustrator 19.1.0, SVG Export Plug-In . SVG Version: 6.00 Build 0)  -->
<svg version="1.1" id="Layer_1" xmlns="http://www.w3.org/2000/svg" xmlns:xlink="http://www.w3.org/1999/xlink" x="0px" y="0px"
	 viewBox="0 0 300 300" style="enable-background:new 0 0 300 300;" xml:space="preserve">
<style type="text/css">
	.st0{fill:#FFFFFF;}
</style>
<path d="M13.9,189.6c0-1.1,0.3-2.1,1-2.9c1.1-1.2,2.3-2.6,3.7-3.3c3.6-1.8,6.4-4.5,10-6.3c2.6-1.3,4.8-3.3,6.9-5.4
	c3.8-3.9,7.5-7.8,10.6-12.3c2.5-3.6,5.4-6.9,8.3-10.1c2.8-3.2,6.1-5.6,10.3-6.7c2.2-0.6,4.3-1.6,6.3-2.7c3.2-1.9,6.6-3.5,10.1-4.8
	c3.1-1.2,6.1-2.6,9.1-4c1.9-0.9,3.7-1.9,5.7-2.6c4.9-2,9.9-3.3,15.1-3.5c3.7-0.2,7.4-0.7,11.2-1.1c5.8,0.7,10.4-2.5,15-5.2
	c4.5-2.7,9-5.2,13.8-7.2c1.5-0.6,3.1-1.1,4.7-1.7c0.3-0.1,0.6-0.6,1-1c-1-2-2.1-4-3.2-6c-2.4-4.2-2.1-8.3,0.5-12.4
	c1.7-2.6,3.3-5.3,5.1-7.9c3.4-4.8,7.5-8.9,12.9-11.5c1.7-0.8,3.4-1.5,5.3-1.6c6.3-0.6,11.5-3.6,16-7.7c2-1.8,3.9-3.7,5.9-5.6
	c1.2-1.1,2.4-2.3,3.7-3.4c3.6-3.1,7.8-4.8,12.5-5.3c1.7-0.2,3.3-0.2,5-0.3c0.9,0,1.6,0.2,2.3,0.8c-1,0.1-2,0.4-3.1,0.4
	c-6,0.1-11.5,1.7-16.1,5.8c-1.2,1.1-2.4,2.3-3.6,3.4c-1.3,1.3-2.6,2.7-3.9,4c-4.9,4.7-10.3,8.5-17.2,9.4c-0.6,0.1-1.2,0.3-1.8,0.4
	c-6.8,1.7-12,5.6-16,11.3c-2.3,3.2-4.2,6.7-6.2,10.1c-1.2,2.1-1.2,4.5-0.3,6.6c0.9,2.1,2.2,4,3.4,6c0.2,0.4,1.4,0.3,1.6-0.1
	c0.3-0.6,0.7-1.1,0.8-1.7c0.2-1.4,0.3-2.9,0.5-4.3c0.3-2.5,1.5-4.3,3.7-5.4c1.5-0.7,3-1.4,4.6-1.9c2.2-0.7,4.3-1.7,6.1-3.1
	c1.2-0.9,2.2-1.9,3.3-2.8c4.2-3.7,8.4-7.5,12.9-10.8c1.3-1,2.6-2.2,4.3-2.4c-0.3,1.6-1.6,2.4-2.8,3.2c-5.2,3.9-10.1,8-14.8,12.5
	c-2.6,2.5-5.5,4.4-9,5.5c-1,0.3-2,0.7-2.9,1.1c-2.1,0.9-3.3,2.5-3.6,4.8c-0.3,1.9-0.5,3.7-0.7,5.6c0,0.4,0.1,0.8,0.2,1.2
	c0,0.2,0.3,0.3,0.4,0.3c0.2,0.1,0.5,0.2,0.6,0.1c1.2-1.1,2.4-2.4,3.7-3.4c3.3-2.6,6.7-4.9,11.1-5.2c1-0.1,2.1-0.1,3.1-0.4
	c3.5-1.2,7.3-2.2,10.5-4c3.5-2,7.2-3.2,10.8-5c8.2-4.1,16.4-8.3,24.5-12.4c2.3-1.2,4.1-2.7,5.6-4.9c1-1.5,2.4-2.9,3.6-4.3
	c0.8-1,1.6-2,2.3-2.9c0.4-0.5,0-1.4-0.6-1.5c-0.6-0.1-1.2-0.3-1.8-0.2c-4.4,0.2-8.8,0.3-13.1,0c-1.9-0.1-3.8,0-5.6,0.1
	c-3.8,0.1-7.4,1.4-10.6,3.4c-1.9,1.2-3.7,2.7-5.6,4c-1.2,0.8-2.3,1.7-3.6,2.5c-0.5,0.3-1.2,0.2-1.8,0.3c0.3-1.1,1.1-1.7,2-2.3
	c2.5-1.9,5.1-3.6,7.6-5.5c3.4-2.7,7.4-3.8,11.6-4.1c2.9-0.2,5.8,0,8.8-0.1c5.4-0.1,10.8-0.1,16.3-0.2c1.6,0,2.7-1.7,2-3.1
	c-0.6-1.1-1.2-2.2-1.8-3.3c-1-1.8-2.4-2.8-4.4-3c-2.1-0.2-4.2-0.4-6.2-0.7c-3.1-0.4-6.1-1.2-8.8-2.9c1.6,0.2,3.3,0.2,4.9,0.7
	c2.8,0.8,5.7,1.1,8.6,1c0.8,0,1.7,0.1,2.5,0.1c1.3,0.1,2.4,0.7,3.2,1.6c1,1.1,1.8,2.3,2.6,3.5c1,1.6,2.1,3,3.9,3.8
	c1.2,0.5,1.8,1.7,2.2,2.9c0.4,1.2,0.8,2.4,1,3.6c0.4,1.8,1.2,3.1,3.2,3.2c2.4,0.2,4.4,1.3,5.9,3.1c1.4,1.7,3.6,2.9,4,5.4
	c0.9,0.8,1.9,1.6,2.8,2.4c0.8,0.8,1,1.9,0.6,2.9c-0.3,1-0.8,1.9-1.4,2.7c-3.9,4.6-7.3,9.6-10.6,14.5c-1.4,2-3.1,3.8-4.8,5.7
	c-0.4,0.4-1.1,0.4-1.7,0.6l0.1,0.1c0-0.9,0.5-1.6,1-2.2c5-5.9,8.9-12.6,13.6-18.7c0.4-0.5,0.7-1,1.1-1.5c0.9-1.4,0.4-2.9-1-3.6
	c-1.4-0.6-2.8-1-4.2-0.8c-6.5,1-12.6,3-17.4,7.7c-1.6,1.6-3.3,3.2-5,4.7c-2.5,2.3-5.1,4.4-8,6c-4.4,2.4-8.3,5.5-12.2,8.6
	c-2.3,1.8-4.6,3.6-6.8,5.5c-0.5,0.4-1,0.8-1.5,1.1c-0.3,0.1-0.8,0.1-1.1-0.1c-0.2-0.1-0.2-0.8,0-1c2.3-1.8,4.6-3.6,6.8-5.4
	c4.1-3.3,8-6.8,12.5-9.3c5.1-2.9,9.5-6.7,13.7-10.8c0.9-0.9,1.9-1.6,2.9-2.4c-0.5,0-0.5,0-0.2-0.2c0,0.1,0.1,0.3,0.1,0.4
	c-1.2-0.4-2.4-0.7-3.7-0.3c-1,0.3-2,0.6-3,0.8c-4.4,0.7-8.4,2.5-12,5.1c-8.5,6-17.6,11.2-26.8,16c-5.9,3.1-11.7,6.5-17.4,9.9
	c-8,4.8-14.5,11.1-18.9,19.5c-0.3,0.5-0.5,1.2-0.6,1.8c-0.1,0.4-0.1,0.9,0.1,1.1c0.2,0.2,0.8,0.4,1.1,0.3c1.8-0.6,3.5-1.4,5-2.4
	c1.9-1.3,3.9-2.4,6-3.4c7.4-3.4,14.3-7.6,21.1-12.2c2.8-1.9,5.6-3.6,8.4-5.4c0.2-0.1,0.4-0.2,0.6-0.2c0.2,0,0.5,0.1,0.5,0.2
	c0,0.4,0.1,0.9-0.1,1c-9.1,6.7-18.5,12.8-28.6,17.8c-2.2,1.1-4.3,2.5-6.5,3.7c-0.1,0.1-0.3,0.4-0.2,0.6c0.1,0.3,0.3,0.8,0.6,0.9
	c1.6,0.5,3.2,0.8,4.9,0.4c2-0.6,4-1.1,6-1.6c1.4-0.4,2.8-0.9,4.2-1c4.9-0.4,9.3-2,13.5-4.5c1.6-1,3.2-2,5.2-2.1l-0.2-0.1
	c-1.4,2.2-3.7,3.4-5.9,4.5c-3,1.5-6.1,2.7-9.4,3.4c-3.1,0.6-6.1,1.2-9.1,2.2c-3.5,1.1-6.9,1.4-10.5,1.2c-0.8,0-1.7-0.1-2.5,0
	c-1.2,0-2.4,1-2.7,2.2c-0.2,0.8-0.5,1.6-0.5,2.4c-0.1,4.6-0.2,9.2,1.4,13.6c1.4,4,2,8.1,2.1,12.3c0.1,2.5,0.5,5,0.8,7.5
	c0.1,0.8,0.6,1.4,1.1,1.3c0.6-0.2,1.2-0.3,1.6-0.7c2-2.1,3.9-4.3,6-6.4c2.4-2.3,4.8-4.6,7.5-6.7c3.2-2.4,5.8-5.4,8.5-8.3
	c0.7-0.8,1.2-1.7,1.7-2.6c1.9-3.5,3.8-7,5.8-10.4c2-3.4,4.2-6.7,6.4-10c1.7-2.4,3.8-4.4,6.4-5.9c1.2-0.7,2.4-0.6,3.6,0
	c2,1,3.3,2.5,3.9,4.7c0.6,2.3,0.8,4.5,0.1,6.8c-0.7,2.4-1.4,4.8-2.2,7.1c-0.9,2.4-2.7,4.2-4,6.3c-1.3,2.1-1.9,4.7-3.4,6.6
	c-1.5,2.1-2.7,4.2-3.7,6.5c-1.9,4.4-4.8,8.3-7.3,12.4c-1.1,1.8-2.2,3.5-3,5.5c-0.6,1.5-1.6,2.9-2.6,4.3c-1.6,2.4-3.8,3.8-6.6,4.3
	c-4.9,0.9-9.5,2.9-14.3,4.5c-0.4,0.1-0.6,0.5-0.9,0.8c0.1,3.7,0.3,7.5-0.2,11.2c-0.4,3.4-1.7,6.4-3.6,9.2c-3.1,4.5-7,8.2-11.4,11.6
	c-1.3,1-2.7,1.9-4,3.1c-3.1,2.9-6.8,4.9-10.6,6.5c-3.1,1.3-6.2,2.4-9.4,3.6c-2.2,0.8-4.5,0.9-6.8,0.9c-2.9,0-5.8-0.1-8.8-0.1
	c-4.4,0-8.7,0.1-13.1,0.9c-3.9,0.7-7.9,1-11.8,1.6c-1.4,0.2-2.8,0.7-4.2,1.1c-1.4,0.4-2.8,0.9-4.2,1.3c-2.7,0.6-4.9,0.1-6.5-2.4
	c-1.4-2.1-2.6-4.2-3-6.8c-0.2-1.5-1-2-2.6-2c-1.3,0-2.5,0.1-3.8,0.1c-4-0.1-7.9-0.1-11.9-0.8c-1.6-0.3-3.3-0.3-5-0.1
	c-4.1,0.5-8.2,1.2-12.4,1.8c-1,0.1-2.1,0-3.1,0c-0.8-0.1-1.8-0.6-2.4-0.3c-2.9,1.2-5.3-0.1-7.8-1.1c-2.7-1.1-5.1-2.8-7-5.1
	c-0.7-0.8-1.1-1.8-1.1-2.8c0,0-0.2,0.1-0.2,0.1c1.5,1.2,2.9,2.3,4.4,3.5c0.4,0.3,1.5,0.2,1.7-0.2c1-2.6,3.1-3.7,5.6-4.3
	c1.2-0.3,2.3-0.9,3.5-1.2c5.6-1.7,11.1-3.5,16.7-4.9c4.2-1.1,8.5-2,12.7-3.1c3.2-0.9,6.3-2.2,9.7-2.1c4.2,0.1,8.3-0.7,12.3-1.4
	c-2.8,2.1-6,2.8-9.4,2.8c-4,0.1-7.9,0.8-11.7,1.9c-4.2,1.2-8.4,2.4-12.7,3.3c-6.7,1.5-13.2,3.7-19.7,6c-1,0.3-1.8,1-2.7,1.5
	c-0.5,0.3-0.6,1.4-0.1,1.6c2.2,1.1,4.5,2.2,6.7,3.3c1.6,0.8,3.2,0.8,4.9,0.6c4.3-0.6,8.7-1.1,13-1.6c1-0.1,2.1-0.1,3.1,0.2
	c3.9,1.1,7.9,0.7,11.8,0.8c3.6,0.1,7.1,0,10.3-2c0.2-0.1,0.4-0.2,0.6-0.2c3.7-0.3,6.7-2.4,9.6-4.3c5.3-3.4,10.8-6.3,16.5-8.9
	c3.5-1.6,6.5-3.7,9.3-6.2c2.5-2.2,4.8-4.6,7.4-6.7c2.4-2,4.4-4.4,6.2-7c0.8-1.2,1.6-2.5,2.5-3.6c0.5-0.6,1.3-1,1.9-1.5
	c-0.3,0.8-0.4,1.6-0.8,2.3c-2.5,4.3-5.6,8.2-9.3,11.7c-1.5,1.4-3,2.9-4.4,4.4c-0.4,0.4-0.4,1.1-0.6,1.7c-0.2,0-0.4,0-0.5,0
	c-0.1,0-0.1,0.4-0.1,0.4c0.4,0.2,0.6,0,0.5-0.5c1.3,0.4,2.5,0,3.6-0.6c1.9-0.9,3.6-2.2,5.7-2.6c2.1-0.4,3.9-1.4,5.8-2.3
	c4.2-2.2,8.5-4.4,12.7-6.6c3.3-1.7,6.5-3.7,9.4-6.1c3.2-2.7,6.4-5.3,9.9-7.6c0.9-0.6,1.6-1.3,2.4-1.9c-0.7-5.7-1.2-11.2-1.6-16.8
	c-0.1-1.4-0.3-2.9-0.6-4.3c-0.6-3.5-1.3-6.9-1.9-10.4c-0.5-2.7-1.5-5.2-3.5-7.2c-0.8-0.8-2.1-0.7-2.8,0c-1,1.1-1.5,2.4-2,3.8
	c-1,2.7-1.9,5.5-3.5,8c-1.7,2.6-2.8,5.5-3.7,8.5c-0.7,2.4-1.6,4.7-2.6,7c-2.9,6.5-6.8,12.4-10.8,18.2c-0.3,0.5-1,0.8-1.4,1.1
	c0.1-0.4,0.1-0.9,0.3-1.2c3.7-5.8,7-11.8,10.4-17.8c0.8-1.5,1.5-3,1.7-4.7c0-0.3-0.3-0.7-0.5-1c0-0.1-0.4,0-0.6,0.1
	c-1.2,0.6-1.9,1.6-2.5,2.7c-1.3,2.2-2.9,4.1-4.8,5.8c-5,4.7-10.1,9.3-15.2,13.9c-1.1,1-2.2,1.9-3.8,2c0.6-1.6,2.1-2.6,3.3-3.7
	c2.9-2.7,5.8-5.4,8.8-8c5.4-4.6,10.1-9.9,14.3-15.6c2.5-3.4,4.6-7,5.5-11.1c0.7-3.3,1.7-6.4,3.6-9.3c0.7-1.1,0.9-2.3,0.9-3.6
	c0.1-4.2,0.1-8.3,1.2-12.4c0.3-1.2,0.4-2.5,0.3-3.7c-0.3-2.8,0.5-5.4,1.4-7.9c0.5-1.4,1.1-2.7,1.6-4.1c0.1-0.3,0-0.9-0.2-1.1
	c-0.2-0.2-0.8-0.4-1.1-0.3c-3.7,1.3-7.4,2.7-11.2,3.9c-1.6,0.5-3.1,1.3-4.4,2.3c-1.8,1.4-3.7,2.7-5.8,3.6c-3.7,1.6-6.9,3.8-10.1,6.2
	c-3,2.2-6.1,4.4-9.3,6.3c-5.1,2.9-9.9,6.2-14.8,9.4c-5.8,3.7-11,8.3-15.8,13.2c-5.4,5.5-11.7,9.3-19,11.6c-1.4,0.4-2.8,0.9-4.2,1.4
	c-5.3,1.8-10.7,3.5-16,5.3c-3,1-5.8,2.4-8.8,3.3c-3.7,1-7,2.5-10.4,4.2c-3.5,1.8-7.2,3.3-11.2,3.8L13.9,189.6z M42,170.1
	c1.9-0.9,4-1.8,6-2.9c8.4-4.7,16.7-9.4,25.1-14c10.6-5.8,21.1-11.8,31.4-18.2c2.7-1.7,5.3-3.3,8.3-4.4c1-0.4,1.8-1,2.7-1.5
	c0.5-0.3,1-0.7,1-1.4c0-0.4-0.7-0.8-1.4-0.8c-1.9,0.1-3.7,0.3-5.6,0.2c-2.1-0.1-4.2,0.4-6.2,0.9c-3.9,0.9-7.5,2.5-11,4.4
	c-3,1.6-6,3-9.1,4.1c-3.5,1.3-7,2.8-10.2,4.7c-3.1,1.8-6.3,3.3-9.7,4.3c-2.5,0.7-4.5,2.1-6.4,3.8c-1.1,1-2.1,2-3,3.2
	c-4.2,5.4-8.4,10.9-12.6,16.4c-0.1,0.1-0.1,0.4-0.1,0.6c0,0.2,0.1,0.4,0.2,0.5C41.4,169.9,41.6,169.9,42,170.1z M169.6,184.3
	c0.9-0.4,1.8-0.9,2.8-1.2c2.6-0.8,5-2,7.1-3.8c2-1.5,4-3,5.7-4.8c1.6-1.6,3.7-2.7,5.4-4.3c1.5-1.5,3.1-2.8,5-3.7
	c3-1.3,5.2-3.5,7-6.1c2.9-4.6,6.5-8.7,9-13.5c0.5-0.9,1.1-1.9,2-2.3c2-1.1,2.9-2.9,3.7-4.8c1.3-3.1,0.1-5.7-1.8-8.1
	c-0.6-0.8-1.9-1-2.9-0.6c-0.4,0.2-0.8,0.3-1.1,0.5c-1.9,0.9-3.4,2.4-4.8,4c-3.9,4.4-6.9,9.5-9.4,14.7c-3.4,6.9-7.9,12.7-13.9,17.5
	c-4.7,3.8-9.1,8-12.9,12.7c-0.6,0.8-1.1,1.8-1.6,2.7c-0.1,0.1,0,0.4,0,0.6C169.1,184,169.3,184.1,169.6,184.3z M88.1,234.2
	c0.5-0.1,1.1-0.1,1.6-0.3c3.3-1.3,5.7-3.9,8.1-6.4c0.1-0.1,0.2-0.4,0.2-0.6c0-0.2-0.1-0.4-0.2-0.5c-0.1-0.1-0.3-0.2-0.5-0.3
	c-0.2,0-0.4-0.1-0.6,0c-3.4,1.5-6.7,3.1-9.4,5.7c-0.5,0.5-0.7,1.2-0.3,1.6C87.3,233.7,87.6,233.9,88.1,234.2z M160.5,142.8
	c-0.1-0.6,0-1.1-0.2-1.4c-0.2-0.3-0.6-0.6-0.9-0.7c-1.8-0.3-3.9,1.1-4.1,2.9c-0.1,0.5,0.1,1.4,0.5,1.7c0.8,0.6,1.8,1,2.7,1.5
	c0.8,0.4,1.6-0.1,1.8-1.1C160.3,144.7,160.4,143.7,160.5,142.8z"/>
<path d="M249.2,105.5c0,0.9-0.4,1.6-1,2.2c-2.4,2-4.8,4-7.2,6c-2.3,1.8-4.7,3.5-7,5.3c-2.5,1.9-5.2,3.4-8.2,4.4
	c-4.8,1.6-9.6,2.9-14.6,3.5c-1.6,0.2-3.2,0.8-4.8,1.3c-1.2,0.4-2.3,0.8-3.5,1.2c0,0,0.2,0.1,0.2,0.1c0.5-1.8,1.9-2.7,3.5-3.2
	c2.4-0.7,4.8-1.3,7.2-1.8c4.1-0.8,8.1-1.8,12-3.1c3-1,5.7-2.4,8.2-4.4c4.6-3.6,9.1-7.2,13.7-10.8c0.5-0.4,1.1-0.4,1.7-0.6
	L249.2,105.5z"/>
<path class="st0" d="M115.2,215.8c0,0.5-0.1,0.7-0.5,0.5c0,0,0-0.3,0.1-0.4c0.2-0.1,0.4,0,0.5,0
	C115.3,215.9,115.2,215.8,115.2,215.8z"/>
<path d="M109.1,200.7c-1.2,1.7-2.8,2.9-4.6,3.9c-3.6,2-7.2,3.8-10.8,5.7c-0.7,0.4-1.6,0.4-2.4,0.6c2-2.4,4.9-3.6,7.6-4.9
	c2.4-1.2,4.7-2.3,6.9-3.8C106.8,201.5,108,201.2,109.1,200.7z"/>
<path d="M112.9,198.2c-0.9,1.5-2.3,2.4-4,2.7C109.7,199.2,111,198.2,112.9,198.2z"/>
<path d="M115.4,195.7c-0.2,0.8-0.6,1.3-1.5,1.5C114,196.3,114.5,195.8,115.4,195.7z"/>
<path d="M114.1,196.9c-0.2,0.8-0.7,1.3-1.5,1.5C112.7,197.5,113.2,197,114.1,196.9z"/>
</svg>
