<?xml version="1.0" encoding="utf-8"?>
<!-- Generator: Adobe Illustrator 19.1.0, SVG Export Plug-In . SVG Version: 6.00 Build 0)  -->
<svg version="1.1" id="Layer_1" xmlns="http://www.w3.org/2000/svg" xmlns:xlink="http://www.w3.org/1999/xlink" x="0px" y="0px"
	 viewBox="0 0 300 300" style="enable-background:new 0 0 300 300;" xml:space="preserve">
<path d="M30.6,94.9c2.7-8.5,8.7-13.4,17.1-15.6c4.9-1.3,9.9-2.2,15.2-2.2c9.5,0.1,18.9-0.6,28.4-1.1c10.9-0.7,21.6,0.9,32.1,3.6
	c4.7,1.2,9.5,2.2,14.3,2.9c10.8,1.5,21.2,4.5,31.2,8.6c9,3.7,18.2,6.9,27.8,9c3.4,0.8,6.9,1.3,10.4,1.6c4.9,0.4,9.7,1,14.5,1.5
	c1.3,0.1,2.7,0.2,4,0.6c6.8,2.2,13.8,2.6,20.8,3.2c3.2,0.3,6.4,0.8,9.6,1.4c3.2,0.6,6.2,2,8.9,3.8c5.4,3.6,8.1,8.5,7.6,15.1
	c-0.2,2.6-1.3,4.7-3.4,6.2c-3.6,2.5-7.5,4.3-11.9,4.9c-3.5,0.5-6.9,1.2-10.4,1.8c-1.1,0.2-1.7,1.5-1.2,2.5c0.5,0.9,1,2,1.8,2.6
	c1.4,1.3,1.7,2.6,0.8,4.3c-3,5.1-6.2,10.1-8.9,15.4c-2.1,4.1-4.8,7.8-7,11.8c-1,1.9-2.6,3.4-4.1,5c-2.6,2.8-5.4,5.3-7.3,8.7
	c-1.1,1.9-2.8,3.3-4.5,4.6c-2.6,2-5,4.1-7,6.8c-0.5,0.6-1,1.3-1.6,1.8c-5.4,4.5-10.8,9-16.3,13.4c-3,2.4-6.2,4.2-10.1,4.8
	c-2.4,0.3-4.7,1.3-7,2.1c-4.1,1.4-8.3,2.3-12.7,2.5c-4.3,0.2-8.6,1-12.9,1.3c-3.9,0.2-7.6-0.3-11.1-1.7c-3.8-1.5-7.7-2.5-11.7-3.3
	c-4.8-0.9-9.5-2-14.2-3.2c-2.3-0.6-4.8-1.4-6.7-2.7c-2.6-1.8-5.4-2.4-8.3-3c-4.2-0.9-8.5-1.5-12.8-2.3c-5.1-1-10.2-1.4-15.3-1.8
	c-6.8-0.5-13.4-1.8-19.7-4.6c-1.5-0.7-2.9-1.4-4.3-2.3c-2.6-1.7-3.2-4.4-2.3-7.2c0.6-1.8,1.6-3.4,2.3-5c-1.6-4.4-3.9-7.9-7.4-10.7
	c-2.6-2-2.6-6.3-1.3-9c0.3-0.7,1-1.3,1.6-1.7c2.9-1.7,2.9-2.5,1.9-6c-1.5-4.9-2.6-9.9-3.8-14.9c-0.4-1.6-0.2-3.2-0.3-4.9
	c0,0-0.2,0.1-0.2,0.1c0.5,0.6,1.1,1.2,1.3,1.9c1.1,3.6,2.1,7.3,2.9,11c0.6,2.7,1.4,5.2,2.5,7.7c1.2,2.5,3.3,3.5,5.9,3.4
	c2.7-0.2,5.4-0.8,8.1-1c2.4-0.2,4.1-1.2,5.3-3.2c3.8-6.3,5.5-6,11.7-7.5c1.3-0.3,2.7-0.4,4-0.7c5.5-1.2,11.1-2.3,16.6-3.8
	c2.6-0.7,5.2-1.2,8-1.3c4.3-0.1,8.6-0.3,12.9-1.2c2.9-0.6,5.9-0.8,8.9-0.6c6.8,0.3,13.5,0.2,20.3-0.1c12.4-0.6,24.8-1.2,37-4
	c2.9-0.7,5.8-1.3,8.7-1.8c6.1-1.2,12.2-2.2,18.5-2.3c1.3,0,2.7,0,4-0.2c6.2-1,12.4-0.8,18.6-0.7c1.6,0,3.2,0,4.8-0.1
	c4-0.4,8.1-0.9,12.1-1.6c4-0.7,8-1.4,11.9-2.4c2.1-0.5,4.1-1.5,5.9-2.6c3.8-2.2,5.2-6.5,3.8-10.5c-1.3-3.7-3.6-6.6-7.1-8.5
	c-4.6-2.4-9.5-3.8-14.7-4.3c-5.4-0.5-10.8-0.8-16.1-1.9c-5.9-1.2-11.8-1.8-17.7-2.6c-3-0.4-5.9-0.5-8.9-1c-3.2-0.5-6.4-1.1-9.4,1
	c-1,0.7-2.6,0.7-3.9,0.7c-5.1,0-10.3-0.1-15.4-0.2c-1.6,0-3.2-0.4-4.9-0.3c-7,0.3-14,0.8-21.1,1.2c-2.7,0.1-5.4,0.1-8.1,0.1
	c-13,0.1-26,0.1-39,0.2c-3.8,0-7.6,0-11.3-0.9c-3.7-0.9-7.5-1.2-11.3-1.3c-5.9-0.1-11.9-0.1-17.7-1.6c-1.5-0.4-3.2-0.3-4.8-0.5
	c-4-0.4-8.1-0.7-12.1-1.2c-3.9-0.5-7.3-1.9-9.3-5.7c-0.6-1.1-1.1-2.6-2.8-2.6c-1.1,0.7-2.2,1.3-3.3,2L30.6,94.9z M202.1,175.3
	c2.3,1.4,4.5,1.2,6.7-0.3c2.2-1.5,4-3.4,5.3-5.8c0.1-0.1-0.1-0.5-0.2-0.6c-0.2-0.2-0.4-0.4-0.6-0.4c-0.8,0.1-1.5,0.3-2.2,0.6
	c-3.4,1.6-6,4.3-8.8,6.7l0.3,0.4L202.1,175.3z M215.8,143.8c-6.8-1.3-13.5-0.8-20,1.7c-2.5,1-5,2-7.5,3.1c-1,0.4-1.9,1.1-3,1.3
	c-4.5,0.7-8.9,2-13.6,1.8c-5.6-0.3-11.2-0.2-16.9,1.3c-6,1.5-12.2,2.1-18.5,1.8c-4.7-0.2-9.2,0.5-13.4,2.5c-4.7,2.3-9.8,3.3-14.8,4
	c-10.5,1.4-20.5,4.9-30.8,6.8c-3.8,1.8-7.9,2-11.9,1.5c-8.2-1-16.2,0.8-24.2,2c-2.2,0.3-3.3,3.2-2.2,5.1c0.3,0.5,0.5,1,0.9,1.4
	c2.4,2.2,4.2,4.9,5.9,7.7c0.9,1.5,2.4,2.1,4.2,2c1.1-0.1,2.2-0.2,3.2-0.4c4.8-1,9.6-1.9,14.3-3c3.7-0.9,7.4-1.3,11.3-1.2
	c5.7,0.1,11.4-0.1,17,0.1c3,0.1,5.9-0.4,8.7-1.4c6.6-2.3,13.3-4.5,20-6.7c8-2.6,15.9-5.3,24-7.6c10.1-2.9,20.4-5.3,30.6-7.9
	c1.6-0.4,3.2-0.7,4.8-1c4.8-0.9,9.5-2.4,13.8-4.5c5.8-2.8,11.5-6,17.2-9.1c0.4-0.2,0.5-0.9,0.8-1.3l0.4,0L215.8,143.8z M116.5,193.9
	c7.8,1.4,15.4,0.3,22.9-0.2c4.6-0.3,9.2-1,13.8-0.8c7.5,0.3,14.5-1.7,21.4-4c1.8-0.6,3.6-1.3,5.4-1.9c6.2-2.2,11.7-5.5,16.5-10.1
	c1.9-1.9,3.9-3.7,5.9-5.6c2-1.9,4.3-3.3,6.8-4.4c4.9-2.3,9.8-4.7,14.5-7.2c5.3-2.8,10.2-6.1,14.9-9.9c1-0.8,1.9-1.9,2.8-2.9
	c0.8-1,0.1-3.1-1.1-3.3c-1.1-0.2-2.1-0.5-3.2-0.4c-10.4,0.8-20.3,3.1-29.5,8.2c-1.9,1.1-3.7,2.2-5.6,3.3c-3.5,2-7.3,3.8-11.3,4.6
	c-10.6,2.1-20.8,6.1-31.5,7.7c-2.1,0.3-4.2,1-6.3,1.5c-15.9,4.4-31.5,9.7-47,15.6c-3.1,1.2-6.2,1.8-9.5,1.8
	c-5.1-0.1-10.3,0-15.4-0.2c-7.7-0.4-15.1,1.3-22.3,3.7c-0.4,0.1-0.8,0.8-0.8,1.1c0,0.4,0.4,1.1,0.8,1.3c3,1.4,6.2,1.9,9.4,2.2
	c4.6,0.4,9.2,1,13.7,1.3c3,0.2,6,0.3,8.9-0.1C99.4,193.8,108.1,194.9,116.5,193.9z M112.5,213.7c2.4-0.2,4.3-0.5,6.2-0.6
	c5.4-0.3,10.8-0.9,16.2-0.9c8.5-0.1,16.6-1.4,24.8-3.8c5.3-1.6,10-4.1,14.2-7.6c2.5-2.1,5-4.2,7.7-5.9c2.7-1.8,5.1-4,6.8-6.8
	c0.1-0.2,0-0.5-0.1-0.7c-0.2-0.2-0.5-0.4-0.7-0.4c-5.9,1.9-11.9,3.6-17.7,5.7c-5.2,1.8-10.3,2.9-15.9,2.8
	c-5.1-0.1-10.3,0.4-15.4,0.7c-7.6,0.5-15.1,1.2-22.7,0.4c-0.8-0.1-1.6,0-2.4,0c-4.9,0.1-9.7,0.2-14.6,0.4c-1.9,0.1-3.9-0.1-5.7,0.4
	c-4.6,1.1-9.1,0.6-13.7,0.1c-8.3-0.9-16.7-1.6-24.9-3.2c-1.3-0.3-2.7-0.4-4-0.4c-0.8,0-1.6,0.1-2.4,0.4c-1.4,0.4-2.3,1.4-2.7,2.8
	c-0.4,1.2,0.2,2.9,1.3,3.6c0.9,0.6,1.8,1.3,2.7,1.7c6.2,2.8,12.5,5,19.5,5.1c1.6,0,3.3,0.1,4.9,0.3c8.6,1.2,17.2,2.1,25.6,3.9
	C103.8,212.6,108.4,213.1,112.5,213.7z"/>
<path d="M29,122.3c-0.4-0.7-0.9-1.4-1-2.1c-0.7-6.1-0.8-12.2-0.1-18.2c0.1-0.7,0.8-1.3,1.2-2l-0.2-0.2c-0.7,7.6-0.2,15.2,0,22.8
	L29,122.3z"/>
<path d="M30.6,128.8c-0.9-0.7-1.2-1.6-1.3-2.7c-0.1-1.3-0.2-2.6-0.3-3.9c0,0-0.2,0.3-0.2,0.3c1.2,2,1.4,4.3,1.6,6.5L30.6,128.8z"/>
<path d="M32.2,133.7c-1-0.6-1.2-1.6-1.3-2.6c-0.1-0.8-0.2-1.5-0.3-2.3c0,0-0.2,0.3-0.2,0.3c1.2,1.4,1.5,3.1,1.6,4.9L32.2,133.7z"/>
<path d="M33.8,138.6c-1.4-1.4-1.4-3.2-1.6-4.9c0,0-0.2,0.3-0.2,0.3c1.4,1.3,1.4,3.1,1.6,4.9L33.8,138.6z"/>
<path d="M35.5,143.6c-1.6-1.3-1.7-3.1-1.6-5c0,0-0.2,0.2-0.2,0.2c1.9,1.2,1.5,3.1,1.6,4.9L35.5,143.6z"/>
<path d="M29,100c0-1.9-0.1-3.8,1.6-5c0,0-0.2-0.1-0.2-0.1c0,1.8,0,3.6-1.6,4.9L29,100z"/>
</svg>
