<?xml version="1.0" encoding="utf-8"?>
<!-- Generator: Adobe Illustrator 19.1.0, SVG Export Plug-In . SVG Version: 6.00 Build 0)  -->
<svg version="1.1" id="Layer_1" xmlns="http://www.w3.org/2000/svg" xmlns:xlink="http://www.w3.org/1999/xlink" x="0px" y="0px"
	 viewBox="0 0 300 300" style="enable-background:new 0 0 300 300;" xml:space="preserve">
<path d="M176.3,172.5c-0.2,0.9-0.2,1.9-0.5,2.7c-2.4,6.5-1.4,12.7,2,18.6c1.8,3.2,2.7,6.8,3.6,10.4c1.7,7.1,0.3,13.7-2.1,20.3
	c-0.5,1.3-1.1,2.6-2,3.6c-4.4,4.7-8.8,9.4-13.5,13.8c-2,1.8-4.5,3.3-7,4.3c-5.3,2-9.9,4.8-14.3,8.2c-6.4,4.9-14,6.8-21.4,9.3
	c-2.3,0.8-6.4-2.2-5.8-4.4c1.5-5.7-0.1-10.9-2-16.1c-0.9-2.6-1.4-5.3-2.1-7.9c-1.4-0.7-2.6-1.5-3.9-1.9c-4.7-1.5-7.8-4.8-9.9-9.1
	c-5.5-11.2-10-22.8-12.3-35.1c-0.3-1.4-0.3-2.7-0.3-4.1c-0.2-5.7,2.7-27.3,5.1-32.6c5.3-11.9,7.7-24.6,11.2-37
	c1.7-6.2,3.8-12.2,6.7-18c4.2-8.2,7.7-16.7,11.4-25.2c0.7-1.7,1.7-3.5,1.5-5.2c-0.6-7.2,4.9-11.7,7.3-17.6c1.6-4,5.2-6.3,8.3-9.1
	c2.1-2,4.7-2.8,7.5-3c4.6-0.4,9.2-0.9,13.7-1.1c1.8-0.1,3.6,0.3,5.4,0.8c3.1,0.8,6.1,1.9,9.7,3c6,7.5,12.9,15,17.4,24.2
	c2.8,5.6,7,9.6,12.1,13c2.7,1.8,5.3,3.6,8,5.5c4.8,3.3,6,8,5.1,13.3c-0.4,2.7-0.9,5.5-1.8,8.1c-3.5,10.5-7.9,20.7-13.9,30
	c-7.2,11.3-14,22.7-19.9,34.7c-0.8,1.6-2.4,2.8-3.6,4.1c-1.5-2.7-0.6-5.4,0.5-8c4.9-11,11.4-21.1,18-31
	c7.1-10.5,11.3-22.1,15.2-33.9c2.4-7.2,0.2-12.7-5.3-17.2c-2.8-2.3-6-4.3-9.1-6.3c-1.8-1.1-5,0.2-5.7,2.3
	c-3.6,11.6-9.7,21.9-16.7,31.7c-2.1,3-4.1,6.2-5.7,9.5c-5.9,12.5-12.7,24.5-21.4,35.4c-1.4,1.8-2.4,3.9-3.6,5.9
	c-3.5,5.9-6.9,12-10.7,17.8c-4.4,6.6-7.9,13.5-8.8,21.5c-0.2,1.8-0.9,3.6-1.6,5.3c-4.8,10.5-4.2,21.6-3.6,32.6
	c0.1,1.7,1.4,3.3,2.2,4.9c0.5,1,2.8,1.3,3.6,0.6c1-0.9,2.2-1.7,3-2.8c8.2-10,16.5-19.8,24.1-30.3c2.4-3.4,4.8-6.8,7.7-9.8
	c3.6-3.7,6-8.2,8.1-12.8c1.3-2.9,2.7-5.9,3.8-8.9C171.2,176.3,173.5,174.2,176.3,172.5z M89.7,183.3c-0.5,3.8,0.2,8.3,1.8,12.7
	c2.5,6.9,5,13.9,7.6,20.8c1.2,3,3,5.7,5.6,7.8c1.4,1.1,4.1,0.7,4.6-0.9c0.5-1.8,1.3-3.5,1.5-5.3c0.8-6.5,2.4-12.7,4.7-18.8
	c1.5-4,2.1-8,0.9-12.2c-1.1-3.7-0.3-7.3,0.5-10.9c1.6-7.7,3.3-15.3,4.6-23.1c1.6-9.1,3.3-18.2,6.7-26.8c3.6-9.1,6.5-18.3,8.1-27.9
	c1.2-7.1,4.5-13,10-17.7c1.8-1.5,3.5-3,4.9-4.9c1.6-2.2,2.9-4.7,4.2-7.1c0.8-1.4-0.3-4-1.8-4.8c-2.1-1-4.1-2.1-6.3-2.7
	c-3.7-1-7.5-0.7-10.8,1.2c-6.5,3.7-12,8.4-14.6,15.9c-2.5,6.9-5.3,13.8-8.8,20.3c-4.9,9.1-7.8,18.8-9.5,28.8
	c-1.3,8.3-3.5,16.2-7.4,23.7C91.4,161.3,89.9,171.7,89.7,183.3z"/>
</svg>
