<?xml version="1.0" encoding="utf-8"?>
<!-- Generator: Adobe Illustrator 19.1.0, SVG Export Plug-In . SVG Version: 6.00 Build 0)  -->
<svg version="1.1" id="Layer_1" xmlns="http://www.w3.org/2000/svg" xmlns:xlink="http://www.w3.org/1999/xlink" x="0px" y="0px"
	 viewBox="0 0 300 300" style="enable-background:new 0 0 300 300;" xml:space="preserve">
<path d="M254,84.5c0,4.8-1,9.2-3.2,13.5c-1.7,3.5-4.2,6.2-7.1,8.5c-5.3,4.2-10.7,8.3-16.2,12.2c-4.2,3-8.6,5.5-12.9,8.3
	c-2.1,1.4-4.2,2.9-6.3,4.4c-3.3,2.3-6.1,5.1-8.6,8.1c-7.1,8.6-13.7,17.7-19.4,27.4c-1.8,3-3.4,6.1-4.5,9.5c-2,6-5.6,10.6-10.7,14.3
	c-4,2.9-7.4,6.3-10.6,10.1c-2.3,2.7-4.7,5.1-7.1,7.7c-2.8,3.1-5.8,6.1-8.4,9.4c-3.5,4.4-7.5,8.3-12.1,11.5c-3.2,2.3-6.3,4.8-9.3,7.4
	c-2,1.7-4.1,3-6.6,3.7c-4.5,1.2-9.1,2.1-13.8,1.3c-0.9-0.1-1.8-0.3-2.8-0.4c-2.1-0.3-4.2-0.2-6.2,0.6c-1.3,0.5-2.8,1.3-4,1.1
	c-3.4-0.6-5.2,1.5-6.9,3.7c-0.3,0.4-0.6,0.7-0.8,1.1c-2.7,5-7.2,5.3-12.1,4.9c-0.9-0.1-1.8-0.4-2.6-0.9c-2-1.3-4-2.5-5.7-4
	c-2.9-2.7-5.5-5.6-7.4-9.2c-1.6-3.2-2.3-6.6-2.3-10.1c0-4.2,1-8.3,1.9-12.4c0.2-0.9,0.7-1.7,1.1-2.5c1.1-1.8,2-3.7,3.3-5.3
	c1.8-2.3,3.3-4.5,2.9-7.6c-0.1-0.4,0-1,0.2-1.4c1.7-3.3,1.4-6.8,0.6-10.2c-0.6-3-0.4-6,0.4-9c1.3-5.2,2.9-10.3,5.1-15.2
	c4.6-10.5,10.4-20.3,16.4-30c4.9-7.8,10.9-14.5,17.9-20.4c3.7-3.2,7-6.8,10.4-10.4c2.7-2.9,5.4-5.8,8.6-8.2c0.9-0.7,1.7-1.5,2.6-2.4
	c4.8-4.7,9.7-9.4,14.5-14.1c1-1,2.1-1.9,3.3-2.6c7.2-4.3,13.7-9.6,20.6-14.4c2.5-1.7,5-3.4,7.6-4.9c4.1-2.3,7.9-4.9,11.6-7.8
	c1.3-1,2.6-2,3.9-2.9c4.8-3.5,9.8-3.8,15.1-1.1c2.5,1.3,5,2.4,7.6,3.5c0.8,0.4,1.8,0.6,2.7,0.6c6.6,0.4,15.4,1.6,20.4,2.8
	c0.9,0.2,1.9,0.5,2.4,1.1c1.4,1.5,3.1,1.9,5.1,1.9c1.7,0,3.1,0.8,4.3,2c1,1,2,2,2.9,3c2.3,2.3,4.6,4.6,7.6,6.1
	c1.3,0.6,2.1,1.8,2.6,3.2c1.1,2.8,2.3,5.6,3.1,8.5C253.8,80.3,253.8,82.4,254,84.5z M101.9,240.1c1.5-0.2,3.2-0.4,4.7-0.7
	c1.2-0.2,2.1-1.3,2-2.5c-0.6-5.3,0.9-10.2,3.4-14.8c1.2-2.2,2.8-4.3,4.4-6.2c2.8-3.4,5.8-6.7,8.6-10.1c3.4-4.1,6.6-8.4,8.3-13.6
	c0.8-2.4,1.9-4.7,3.1-7c2.6-5.2,5.3-10.4,8-15.5c1.6-3.1,3.5-6.1,4.8-9.3c3-7.6,7.1-14.7,11.1-21.8c3.5-6.1,6.7-12.3,9.2-18.8
	c1.6-4.1,3.1-8.3,4.4-12.5c1.7-5.4,4.3-10.3,7.6-14.9c1.9-2.7,3.6-5.4,5.3-8.2c1.5-2.4,3.1-4.6,5-6.7c4-4.3,7.8-8.7,11.6-13
	c1.5-1.7,3.1-3.5,5-4.8c1.1-0.8,2.1-1.9,3.1-2.8c0.6-0.6,0.8-1.6,0.4-1.8c-0.6-0.3-1.2-0.6-1.9-0.7c-1.7,0-3.2,0.5-4.4,1.8
	c-2.1,2.3-4.5,4-7.3,5.3c-1.7,0.8-3.3,1.8-4.8,2.8c-6.9,4.4-13.6,9-19.3,15c-1.9,2-4,3.8-6.1,5.8c-7.2,6.9-14.5,13.8-21.7,20.8
	c-2.2,2.1-4.3,4.3-6.4,6.4c-5.3,5.2-11.1,10-15.9,15.8c-4.8,5.7-9.8,11.2-15.1,16.5c-1.5,1.5-2.8,3.1-4.2,4.7
	c-1.4,1.6-2.7,3.3-4.1,4.8c-3.1,3.2-5.9,6.6-8.2,10.4c-2.5,3.9-5.4,7.6-9.1,10.5c-1.6,1.3-2.9,3-4.3,4.6c-2.7,3.2-5.4,6.4-8,9.7
	c-2.3,2.9-4.5,5.9-6.8,8.9c-3.7,4.8-2.1,4.2-0.7,8.9c0.1,0.4,0.4,0.9,0.6,1.2c1.1,1.3,1.5,2.8,1.9,4.4c0.2,1.3,0.9,2.6,1.6,3.9
	c1.3,2.5,2.6,4.9,4,7.4c2,3.7,4.1,7.3,6.1,11c0.8,1.4,1.8,2.5,3.7,3c1.3,0.3,2.4,1.6,3.6,1.8c1.5,0.2,3.2-0.3,4.8-0.5
	c1.9-0.3,3.7,0,5.5,0.4C97.7,239.7,99.8,239.9,101.9,240.1z M58.4,186.3c0.3,1.2,0.6,2.3,1,3.4c0.2,0.5,1.4,0.7,1.8,0.4
	c0.3-0.3,0.8-0.6,1-1c1.6-3.9,4.2-7.3,6.6-10.7c2.3-3.2,4.5-6.5,6.1-10.2c0.6-1.5,1.4-3,2.4-4.2c2.1-2.5,3.6-5.4,5.2-8.2
	c1.5-2.7,3.2-5.1,5.1-7.5c3.6-4.3,6.8-8.9,9.1-14c0.9-1.9,1.8-3.9,3.1-5.5c4.3-5.2,8.7-10.4,13.8-14.8c4.4-3.8,8.7-7.8,13.7-10.8
	c2.2-1.3,4.1-3.1,6-4.8c2.2-2.1,4.6-3.9,7.1-5.6c1.2-0.8,2.3-1.5,3.4-2.4c6.1-5.1,13.1-8.9,20-12.6c4.1-2.2,8.1-4.6,11.8-7.4
	c1.7-1.3,3.3-2.6,5.2-3.5c6.3-3.1,11.9-7.3,17.9-10.9c0.8-0.5,1.4-1.2,2.1-1.8c0.9-0.9,0.7-2.4-0.2-3.1c-3-1.9-6.2-3.1-9.5-4.3
	c-2.3-0.8-4.6-0.6-6.8,0.6c-3.3,1.8-6.5,3.6-9.3,6.1c-2.3,2-4.8,3.7-7.5,5.1c-5.4,2.8-10.5,6.1-15.3,9.7c-3.2,2.4-6.4,4.7-9.7,6.9
	c-5.7,3.7-11,7.8-15.8,12.7c-5.9,6-11.7,12.1-18,17.6c-0.5,0.5-1,1-1.5,1.5c-4.1,4.8-8.8,9-13.4,13.3c-4.3,4-8.2,8.3-11.2,13.4
	c-1.5,2.6-3.2,5.2-5,7.6c-4.3,5.9-7.7,12.2-10.5,18.9c-0.8,1.9-1.6,3.9-2.5,5.8c-2.3,4.4-3.6,9.1-4.9,13.8
	C59.1,181.7,58.9,184,58.4,186.3z M113.2,235.7c0.7-0.4,1.4-0.6,1.8-1.1c2.5-2.8,4.9-5.6,7.2-8.5c1.6-2,3.2-4,4.6-6.2
	c5.2-8.3,10.2-16.7,14.6-25.4c1.8-3.5,3-7.3,5.8-10.3c0.3-0.3,0.5-0.8,0.6-1.2c0.7-2,2-3.6,3.3-5.3c3.6-4.9,7.1-9.8,10.7-14.7
	c0.8-1.1,1.6-2.3,2.6-3.3c1.9-1.8,3.1-4,4.5-6.2c1.9-2.9,3.8-5.9,5.6-8.8c1.2-2,2.5-3.9,3.6-6c2.6-5.2,5.1-10.5,7.7-15.7
	c3-6.1,6.1-12.1,9.5-17.9c1.1-1.8,2.1-3.7,2.8-5.6c2.9-7.9,6.6-15.4,10.3-22.9c2.7-5.4,5.1-11,9.2-15.6c0.3-0.3,0.4-0.8,0.6-1.3
	c0.3-0.5-0.4-1.4-1.1-1.4c-0.7,0-1.5,0-2,0.3c-1.9,1.3-3.9,2.6-5.7,4.1c-6.4,5.5-11.6,12.1-17.2,18.4c-0.8,0.9-1.4,1.9-2,2.8
	c-2.8,4-5.5,8.1-8.3,12.1c-2.7,3.9-4.8,8-6.2,12.5c-0.6,2-1.2,4-1.9,6c-3.2,8.5-6.5,16.9-11.2,24.8c-4.3,7.2-8.2,14.6-11.7,22.3
	c-1.2,2.5-2.5,5-3.7,7.5c-4,7.9-8.1,15.8-11.5,24c-2.3,5.6-5.5,10.8-9.6,15.4c-2.9,3.3-5.8,6.7-8.6,10.1c-3.2,3.9-5,8.4-6.1,13.2
	c-0.2,0.9-0.1,1.9,0.2,2.7C112,234.8,112.7,235.2,113.2,235.7z M251.5,85.3c0.4-2.7-0.1-5.2-1.2-7.6c-0.8-1.9-1.2-4-1.8-6
	c-0.4-1.4-1.3-2.5-2.4-3.3c-1-0.6-2-1.2-3-1.8c-0.7-0.4-2,0.3-2.2,1c-0.6,2.5-0.4,5.1-0.4,7.7c0,1.9-0.7,3.7-2.1,5
	c-1.2,1.1-2.4,2.2-3.6,3.3c-1.7,1.3-3,2.8-4,4.8c-4.1,8.2-10.2,15-16.5,21.5c-6.4,6.7-13.6,12.8-18.9,20.5c-1.4,2.1-3,4.1-4.2,6.4
	c-0.9,1.9-2.2,3.6-3.5,5.2c-3,3.8-5.9,7.8-7.8,12.4c-0.5,1.1-0.9,2.3-1.7,3c-3,2.9-5.5,6.3-9.4,8.3c-3,1.5-5.4,3.6-7.5,6.2
	c-1,1.3-2.4,2.3-3.4,3.5c-3,3.6-5.9,7.2-8.7,10.9c-0.8,1.1-1,2.6-1.5,3.8c-0.2,0.4-0.4,0.9-0.7,1.2c-2.8,2.9-4.3,6.6-6.1,10.1
	c-2.7,5.4-5.7,10.7-9,15.8c-1.1,1.7-2,3.7-2.8,5.6c-0.1,0.3,0.2,0.8,0.5,1.1c0,0.1,0.5,0,0.7-0.1c2.3-1.3,3.8-3.3,5.5-5.3
	c3.2-3.7,6.4-7.4,9.7-11c2-2.3,4.1-4.5,6.1-6.7c3.5-3.8,6.6-7.8,11-10.6c1.8-1.1,3.3-2.6,4.7-4.1c2.5-2.5,4.7-5.3,5.8-8.6
	c2.5-7.4,6.4-13.9,10.7-20.3c4.8-7.2,10.2-13.9,15.8-20.4c2.1-2.5,4.5-4.8,7-6.8c4.5-3.4,9.1-6.5,13.8-9.5c4-2.5,7.7-5.2,11.4-8
	c2.4-1.8,4.8-3.6,7.3-5.3c6.1-4.2,6.1-4.2,9.6-10.6C250.7,92.9,251.9,89.3,251.5,85.3z"/>
</svg>
