<?xml version="1.0" encoding="utf-8"?>
<!-- Generator: Adobe Illustrator 19.1.0, SVG Export Plug-In . SVG Version: 6.00 Build 0)  -->
<svg version="1.1" id="Layer_1" xmlns="http://www.w3.org/2000/svg" xmlns:xlink="http://www.w3.org/1999/xlink" x="0px" y="0px"
	 viewBox="0 0 300 300" style="enable-background:new 0 0 300 300;" xml:space="preserve">
<style type="text/css">
	.st0{fill:#FFFFFF;}
</style>
<path d="M76.5,85.4c-0.3-1,0-2,0.8-2.5c1.6-1.1,3.3-2.2,5.1-2.8c12.7-4.7,24.9-10.8,37.6-15.4c6.4-2.3,12.6-5.1,18.8-7.8
	c5.4-2.3,10.9-4.1,16.6-5.3c6.6-1.4,13.4-2.2,20.1-3.1c2.9-0.4,5.8-0.4,8.7-0.6c6.1-0.6,12.2-1.2,17.7-4.4c2.2-1.3,4.8-1.9,7.2-2.7
	c7.6-2.7,15.6-3.9,23.2-6.7c3.4-1.2,6.9-1.6,10.5-1.2c4.8,0.5,7.9,4.2,6.5,8.7c-1.2,4.2-1.5,8.3-0.8,12.5c1.3,8.6,2.3,17.3,5.2,25.6
	c2.4,6.6,3,13.2,1.5,20c-0.5,2.2-0.4,4.5-0.5,6.8c-0.2,3.6-0.4,7.1-0.4,10.7c-0.1,4.3-1.2,8.3-3.5,11.9c-4.4,6.8-7.6,14.3-12.2,21
	c-2.5,3.7-4.2,8-6,12.1c-1.6,3.6-3.5,6.9-6.2,9.8c-2.4,2.6-4.5,5.5-6.9,8.2c-2.6,3-4.4,6.3-5.9,9.9c-5.2,11.9-13.1,21.5-24.3,28.2
	c-6.7,3.9-13.5,7.6-20.4,11.2c-3.5,1.8-6.8,3.8-9.7,6.3c-4.2,3.6-8.8,6.5-13.7,9c-4.9,2.5-9.6,5.4-14.2,8.3c-8.3,5.1-17,9.2-26,12.8
	c-4.6,1.8-9.3,2.4-14.3,1.8c-2.2-0.3-3.4-1.5-3.8-3.7c-0.2-0.9-0.7-1.7-1.1-2.6c-2.7,0.3-5.2,0.6-7.8,0.7c-3,0.1-5.8-0.6-7.8-3.1
	c-1-1.3-2.1-2.5-3.3-3.5c-8.5-7.1-15.2-15.8-21.4-24.9c-1.1-1.6-2.1-3.3-3-5c-3.3-6.3-6.4-12.7-9.8-19c-2.6-4.7-3.6-9.6-3.5-14.9
	c0.1-7.8,1-15.5,4.2-22.7c0.8-1.8,1.7-3.6,1.8-5.5c0.4-8.3,4.8-15.3,6.7-23.2c0.1-0.2,0.6-0.6,0.7-0.5c0.4,0.3,1.1,0.6,1.1,1
	c0,1.6-0.3,3.2-0.3,4.8c0,0.9,1.1,1.6,2.1,1.5c3.3-0.3,6.3-1.5,9-3.4c2.4-1.6,4.8-3.3,7.1-5.1c5.3-3.9,10.9-6.9,17.6-7.6
	c5-0.5,9.3-2.8,13.1-5.9c7.4-6.3,15.6-11.6,24.1-16.2c5.9-3.2,11.4-7.3,18.2-8.8c3.2-0.7,5.7-3,8.4-4.8c3.2-2.1,6.3-4.5,9.4-6.8
	c5.2-3.9,11.1-6.6,16.1-10.6c3.7-2.9,8.4-3.3,12.9-2.7c2.8,0.4,5,0,7.5-1c4.7-2,9.6-3.7,14.5-5.2c7.4-2.3,14.5-5.5,21.3-9.2
	c1.4-0.8,2.8-1.6,4.2-2.4c2.8-1.6,5.8-2.8,8.4-4.7c2.3-1.7,3.6-4.5,6.1-6.2c1.7-1.1,2-3.2,2.5-5.1c0.6-2.2-1.2-4.6-3.5-4.9
	c-2.9-0.4-5.8-0.2-8.6,0.6c-10.5,3.1-21.3,5.5-31.3,10.1c-1.5,0.7-2.9,1.4-4.5,1.8c-4.6,1.5-9.3,2.5-14.2,2.7
	c-13.3,0.4-26.3,2.8-39.1,6.5c-2.8,0.8-5.5,1.9-8.2,3c-14.5,6.4-29.3,11.9-44,17.8C87.1,81,81.7,83,76.3,85.2L76.5,85.4z
	 M226.9,68.8c0.3,0,0.7,0.1,0.9,0c2.2-1.4,3.6-3.5,4.6-5.8c0.4-0.8,0.1-2.1-0.7-2.5c-1-0.6-2.6,0-3.1,1.1c-1.1,2.3-1.7,4.8-1.5,7.4
	c-0.1,0.5-1.7,0.7-0.3,1.4C226.9,69.9,226.9,69.4,226.9,68.8z M125.9,107.7c-1.8,0.8-3.7,1.3-5.3,2.3c-9,5.7-18.1,11.3-26.7,17.4
	c-4.9,3.5-9.8,6.1-15.7,7.1c-3.2,0.6-6.2,1.8-8.8,3.7c-6.7,5.1-14,9.2-21.6,12.8c-1.5,0.7-2.9,1.5-4.2,2.4c-1.4,0.9-2.4,2.2-2.5,3.9
	c-0.2,2.9-0.3,5.8-0.4,8.7c0,0.3,0.1,0.6,0.2,0.9c0.2,1.5,2.1,2.9,3.5,2.5c1.8-0.6,3.7-1.1,5.5-1.9c3.8-1.7,7.5-3.8,11.4-5.3
	c4.9-1.9,9.4-4.5,13.3-7.8c7.7-6.4,15.8-12.2,22.8-19.4c1.1-1.1,2.2-2.4,3.5-3.3c7.8-5.3,14-12.4,21.4-18.1c1.3-1,2.3-2.3,3.2-3.6
	c0.4-0.7,0.2-1.8,0.3-2.6c0.2,0.2,0.4,0.4,0.7,0.5c0.2,0,0.4-0.2,0.6-0.3C126.7,107.7,126.3,107.7,125.9,107.7z M209.8,150.7
	c0.1-1.9-0.1-3.9,0.3-5.8c1.2-6.3,2.4-12.7,4-18.9c1-4.1,2.1-8.1,1.9-12.4c-0.2-4.3,0.7-8.3,2.6-12.2c1.2-2.4,1.4-5,1.1-7.6
	c-0.1-0.6-0.4-1.4-0.9-1.5c-0.4-0.2-1.4,0.1-1.6,0.5c-2.3,3.9-4.9,7.6-6.7,11.7c-3.3,7.7-7.2,15.2-8.7,23.5c-0.3,1.6-1,3.1-1.6,4.5
	c-2.3,5-3.9,10.2-4.8,15.7c-1.4,8.7-6.2,16.2-9.4,24.3c-0.3,0.9-1.1,1.6-1.7,2.4c-3.2,4.4-6.5,8.8-9.6,13.3
	c-1.5,2.1-2.8,4.4-3.7,6.8c-3.8,9.9-10.7,17.6-17.5,25.3c-4.3,4.8-9.4,8.9-13.5,13.9c-6.1,7.4-13.5,13-22,17.1
	c-6.6,3.2-13,7.4-20.8,7.4c-1.1,0-2.3,1-3.4,1.7c-0.4,0.3-0.7,1-0.9,1.6c-0.3,0.7,1,1.5,2,1.6c2.6,0.2,5.3,0,7.6-1.2
	c4-2.2,8.2-3.7,12.4-5.3c3.6-1.4,7.2-3.1,10.3-5.3c4-2.8,8.2-5.2,12.5-7.4c3.1-1.7,6.3-3.3,8.9-5.9c6.6-6.7,13.7-12.7,21.3-18.3
	c4.1-3.1,8.1-6.4,11.6-10.2c2.3-2.5,3.6-6,5.3-9.1c3.3-5.9,7.4-11.4,8.4-18.3c2.6-5.1,3.9-10.9,8.1-15.3c2.2-2.3,3.4-5.5,4.3-8.6
	c0.9-3.1,1.8-6.2,4.4-8.4c-0.2,2.6-0.2,5.1,2.1,7.1c1.7,1.5,3.2,3.2,4.5,5.1c1.4,2.1,2.5,4.5,3.6,6.6c2.5,0.4,3.8-1.2,4.8-2.8
	c1.6-2.4,2.9-5,4.1-7.7c4.5-10.4,11-19.6,17-29.1c2.7-4.2,4.4-8.5,5-13.4c0.8-6.1,0.5-12.2,0.9-18.3c0.5-6.2-0.3-12.2-2.3-18.1
	c-2.1-6.1-3.7-12.3-4.3-18.8c-0.1-1-0.3-1.9-0.6-2.8c-0.3-0.9-0.6-1.8-1.7-2.1c-1.1-0.3-1.8,0.2-2.4,1c-3.2,5.2-6.7,10.3-9.6,15.7
	c-2.9,5.4-6,10.7-7.1,16.9c-1.6,8.9-4.4,17.5-5.2,26.6c-0.1,1.6-0.6,3.2-1,4.7c-2.2,9.1-4.4,18.1-6.7,27.2
	C211,149,210.3,149.8,209.8,150.7z M98.5,249.9c1.1-0.2,2.4-0.2,3.6-0.7c4.8-1.9,9.4-4.1,13.7-7c5-3.3,9.1-7.1,12.6-11.9
	c1.9-2.6,4-5,6.1-7.5c4.2-4.9,8.7-9.6,12.6-14.7c3.9-5.1,7.9-10.2,12.1-15c2.1-2.4,3.8-5.2,5.2-8.1c4.1-8.4,8.3-16.8,10.3-26
	c1-4.4,2.4-8.7,4-13c5.5-14.8,11.4-29.5,16.7-44.4c2.4-3.9,3.4-8.3,5-12.5c0.8-2.1,2.1-4,3.2-6c1.8-3.1,3.6-6.1,5.4-9.2
	c0.7-1.1,0.5-2.3-0.3-2.5c-0.6-0.2-1.3-0.5-1.8-0.4c-3.7,1-7.4,2.2-11.1,3.3c-4.9,1.5-8.4,4.5-10.5,9.3c-3.3,7.4-6.7,14.7-10.1,22
	c-1.1,2.4-1.8,4.8-1.9,7.5c-0.1,2.6-0.9,5-2.2,7.3c-4.2,7.7-7.7,15.6-8.9,24.4c-0.3,2.5-1.6,5-1.9,7.5c-0.6,6.3-3.5,11.7-6.4,17.1
	c-8.8,16.2-18.7,31.7-30.9,45.6c-2.1,2.4-4.2,5-5.5,8c-1.8,4.2-4.7,7.7-7.8,11c-4.2,4.4-8.3,9-12.4,13.6c-0.3,0.3,0,1.1,0.1,1.6
	C97.6,249.6,98,249.7,98.5,249.9z M172.8,100.9c0.2-0.3,0.4-0.6,0.6-0.8c0.5-0.6,0.6-1.4-0.1-1.7c-0.4-0.2-1.3,0-1.7,0.4
	c-2.4,2.6-4.8,5.2-7.1,7.9c-4.2,4.9-7.6,10.5-12.4,14.9c-9.8,9-20,17.4-31.7,23.9c-5.9,3.3-11.3,7.5-16,12.5c-2.9,3-6.3,5.6-9.5,8.3
	c-2.7,2.3-5.7,4.3-8.4,6.6c-3.3,2.8-7.2,4.3-11.5,4.7c-1.3,0.1-2.6,0.2-3.9,0.3c-0.6,0.1-1.3,0.2-1.9,0.4c-0.8,0.2-1.1,0.8-0.8,1.4
	c0.3,0.6,0.6,1.4,1,1.5c3.6,1.3,7.4,2.5,11.3,2.2c3.6-0.2,7.1,0.4,10.6,0.9c2.6,0.4,5.1,0.8,7.7,1.2c4,0.6,7.6-0.1,10.9-2.6
	c3.1-2.3,6.4-4.3,9.9-6c2.4-1.1,4.5-2.5,6.4-4.3c6.1-5.7,12.3-11.5,18.4-17.2c0.9-0.9,1.6-2,2.3-3.1c4.9-8,10.9-15.3,14.5-24.1
	c0.4-0.9,1.1-1.6,1.7-2.4c3.8-5.3,6.4-11.2,7-17.8C170.4,105.3,171,102.8,172.8,100.9z M126.5,179.6c-0.2-0.2-0.5-0.7-0.6-0.7
	c-0.9,0.1-1.9,0.2-2.7,0.7c-5.2,2.6-10.4,5.3-15.5,8c-3,1.6-6,2.3-9.3,1.7c-1.3-0.2-2.6-0.3-3.8-0.6c-5.1-1.1-10.2-1.5-15.4-1.3
	c-5.9,0.2-11.5-1.1-16.2-5.3c-2.1-1.9-4.6-3.5-7.1-5.1c-3.1-2.1-7.5-0.4-8.8,3.1c-0.7,1.9-0.5,3.9,0.6,5.6
	c4.1,6.6,7.2,13.7,10.6,20.7c0.8,1.7,1.8,3.6,3.2,4.8c4.3,3.9,8.8,7.6,13.5,11.1c2.2,1.6,4.8,1.9,7.3,0.3c1.6-1,3.3-2,4.8-3.3
	c4.6-4,9.8-6.2,16-5.6c1.8,0.2,3.1-0.5,4.2-1.9c0.6-0.7,1.4-1.4,1.9-2.2c4.3-6.8,8.7-13.6,12.9-20.5c1.5-2.5,2.8-5.1,4.1-7.7
	C126.5,180.9,126.4,180.2,126.5,179.6z M125.1,243c0.6-0.2,1.3-0.3,1.8-0.7c3.2-2.7,6.5-5.3,9.5-8.2c6.3-6,11.4-13.2,18.1-18.9
	c4.4-6.4,8.8-12.7,12.5-19.5c0.6-3.7,2.8-6.4,5-9.2c6.2-7.9,11.3-16.5,15.3-25.7c1.7-3.8,3.5-7.7,4.2-11.8c1-5.8,2.8-11.3,4.9-16.7
	c1.3-3.3,2.7-6.7,3.3-10.1c1-5.9,3.8-10.9,6.1-16.3c2.8-6.6,6.2-12.8,9.8-18.9c2.7-4.5,4-9.5,5.5-14.4c0.1-0.3-0.1-0.6-0.1-1
	c0-0.7-1.5-1.9-2.1-1.5c-0.8,0.4-1.8,0.8-2.5,1.4c-4.5,4.3-8,9.5-10.6,14.9c-3.4,6.9-6.1,14.2-8.7,21.5c-1.7,4.9-3.5,9.7-6,14.3
	c-1.7,3.1-3,6.5-4.2,9.8c-1.6,4.2-3.1,8.5-4.6,12.8c-1.3,3.7-2.6,7.3-3.5,11.1c-2.5,10.1-6.2,19.7-11.1,28.9
	c-2.6,4.9-5.4,9.5-9.1,13.7c-3.9,4.3-7.4,9-10.7,13.8c-2.2,3.2-4.6,6.3-7.3,9c-6.2,6.2-10.7,13.7-16.2,20.4c-0.1,0.2-0.1,0.6,0,0.9
	C124.5,242.7,124.8,242.8,125.1,243z"/>
<path d="M76.3,85.2c-3,1.9-6,3.7-9,5.7c-7.2,4.9-11.9,11.7-15.1,19.6c-2.8,6.9-5,14-6.5,21.2c-0.1,0.5-0.9,0.8-1.4,1.2
	c-0.3-0.4-0.8-0.8-0.9-1.3c-0.1-0.6,0-1.3,0.1-1.9c0.8-5.4,1.7-10.8,4.4-15.7c1.5-2.8,2.3-6,3.5-9c3.7-9.2,10.8-15.1,19.4-19.3
	c1.7-0.9,3.7-0.9,5.7-0.3C76.5,85.4,76.3,85.2,76.3,85.2z"/>
<path class="st0" d="M125.9,107.7c0.4,0,0.8,0,1.2,0c-0.2,0.1-0.4,0.3-0.6,0.3c-0.3-0.1-0.5-0.3-0.7-0.5
	C125.8,107.5,125.9,107.7,125.9,107.7z"/>
</svg>
